<?xml version="1.0" standalone="no"?>
<!DOCTYPE svg PUBLIC "-//W3C//DTD SVG 20010904//EN"
 "http://www.w3.org/TR/2001/REC-SVG-20010904/DTD/svg10.dtd">
<svg version="1.0" xmlns="http://www.w3.org/2000/svg"
 width="612.000000pt" height="612.000000pt" viewBox="0 0 612.000000 612.000000"
 preserveAspectRatio="xMidYMid meet">

<g transform="translate(0.000000,612.000000) scale(0.100000,-0.100000)"
fill="#000000" stroke="none">
<path d="M4495 4433 c-57 -9 -1790 -324 -1812 -330 l-23 -5 0 -447 0 -447 568
-103 c312 -57 581 -109 597 -116 33 -13 85 -68 85 -88 -1 -7 -20 -21 -43 -32
-76 -36 -123 -171 -78 -226 18 -23 18 -25 -15 -148 -185 -703 -183 -698 -173
-732 5 -19 22 -43 37 -54 24 -18 46 -20 224 -23 215 -3 250 2 319 47 59 39 74
69 125 235 23 78 94 312 157 521 l115 380 75 8 c129 13 147 22 184 97 48 97
100 269 124 410 18 108 21 151 16 320 -4 145 -11 219 -26 290 -28 124 -76 268
-117 351 l-33 66 -58 11 c-69 14 -206 22 -248 15z m254 -109 c17 -4 31 -10 31
-13 0 -4 -62 -13 -137 -20 -553 -50 -1546 -221 -1905 -327 -15 -4 -18 1 -18
30 0 20 1 36 3 36 2 0 115 23 252 51 544 110 1176 215 1430 238 124 10 302 13
344 5z m-413 -2108 c-41 -136 -86 -267 -100 -290 -57 -98 -177 -177 -289 -191
-40 -5 -40 -5 15 13 129 44 198 107 259 237 38 81 145 361 170 443 7 23 14 40
16 38 2 -2 -30 -115 -71 -250z"/>
<path d="M4910 4356 c0 -3 13 -39 29 -79 149 -375 153 -816 11 -1219 -21 -60
-34 -108 -30 -108 4 0 41 22 81 48 391 256 472 793 174 1155 -29 35 -78 84
-107 107 -57 44 -158 106 -158 96z"/>
<path d="M2049 4291 l-24 -19 0 -622 c0 -604 1 -622 19 -636 11 -8 29 -14 40
-14 12 0 127 49 256 108 l235 108 3 435 2 436 -245 112 c-135 61 -249 111
-254 111 -5 0 -19 -9 -32 -19z"/>
<path d="M1172 4139 c-67 -33 -105 -76 -100 -112 4 -29 35 -33 99 -12 104 35
164 21 298 -69 48 -33 60 -36 120 -36 55 0 79 6 127 30 67 33 144 95 144 115
0 31 -25 34 -100 14 -104 -28 -166 -22 -227 21 -120 87 -251 105 -361 49z"/>
<path d="M1010 3816 c-140 -31 -282 -151 -239 -202 16 -19 49 -15 134 16 76
28 180 31 252 6 29 -10 97 -47 150 -83 54 -36 115 -72 137 -79 113 -40 286 12
427 129 39 33 51 70 25 80 -8 3 -42 -4 -77 -15 -78 -25 -219 -34 -276 -19 -22
6 -70 31 -105 55 -89 61 -139 84 -225 107 -86 22 -124 23 -203 5z"/>
<path d="M1212 3342 c-101 -36 -166 -112 -129 -149 16 -16 20 -16 74 2 113 39
174 26 317 -68 44 -28 57 -32 120 -32 61 0 79 5 131 33 91 50 139 94 130 120
-7 25 -27 27 -81 8 -104 -36 -175 -28 -257 28 -101 69 -214 90 -305 58z"/>
</g>
</svg>
