<?xml version="1.0" standalone="no"?>
<!DOCTYPE svg PUBLIC "-//W3C//DTD SVG 20010904//EN"
 "http://www.w3.org/TR/2001/REC-SVG-20010904/DTD/svg10.dtd">
<svg version="1.0" xmlns="http://www.w3.org/2000/svg"
 width="612.000000pt" height="612.000000pt" viewBox="0 0 612.000000 612.000000"
 preserveAspectRatio="xMidYMid meet">

<g transform="translate(0.000000,612.000000) scale(0.100000,-0.100000)"
fill="#000000" stroke="none">
<path d="M414 5190 c-67 -15 -130 -71 -155 -137 -13 -36 -45 -341 -60 -578
-19 -314 2 -937 37 -1110 21 -98 94 -193 189 -243 l50 -27 2585 0 2585 0 51
27 c58 30 127 97 154 148 28 55 38 102 57 290 22 215 25 857 5 1070 -38 412
-50 465 -118 516 -75 57 97 54 -2738 53 -1436 -1 -2625 -4 -2642 -9z m5306
-105 c48 -25 59 -61 80 -263 51 -497 53 -921 5 -1339 -15 -134 -31 -179 -82
-229 -55 -55 -88 -67 -195 -72 -94 -4 -98 -3 -98 16 0 12 5 77 11 145 12 145
3 183 -53 217 -33 20 -44 20 -2328 20 -2259 0 -2296 0 -2327 -20 -59 -36 -66
-65 -54 -213 6 -71 11 -138 11 -148 0 -17 -9 -19 -85 -19 -128 0 -198 36 -248
128 -22 41 -31 76 -42 174 -48 425 -45 909 10 1396 17 145 23 165 63 199 l27
23 2638 0 c2338 0 2641 -2 2667 -15z m-371 -1612 c5 -11 5 -70 -2 -155 l-10
-138 -2277 0 -2277 0 -10 138 c-7 85 -7 144 -2 155 9 16 128 17 2289 17 2161
0 2280 -1 2289 -17z"/>
<path d="M527 4142 c-20 -22 -22 -43 -5 -60 17 -17 5059 -17 5076 0 17 17 15
44 -4 62 -14 14 -258 16 -2533 16 -2427 0 -2519 -1 -2534 -18z"/>
<path d="M2506 3854 c-21 -20 -20 -37 2 -57 17 -15 70 -17 554 -17 505 0 536
1 551 18 21 23 21 36 1 56 -14 14 -78 16 -554 16 -476 0 -540 -2 -554 -16z"/>
<path d="M1033 2608 c-6 -7 -13 -110 -16 -228 -19 -646 -112 -963 -393 -1333
-48 -62 -56 -100 -25 -117 30 -16 48 -3 110 79 226 299 326 560 376 981 22
189 32 594 15 615 -15 18 -54 20 -67 3z"/>
<path d="M1751 2606 c-8 -10 -11 -238 -11 -837 0 -765 1 -825 17 -837 23 -16
30 -15 53 8 20 20 20 33 20 831 0 539 -3 817 -10 830 -12 22 -52 25 -69 5z"/>
<path d="M3026 2598 c-12 -16 -16 -47 -16 -113 l0 -90 -89 89 -90 89 -25 -17
c-14 -9 -26 -25 -26 -35 0 -10 52 -73 115 -139 l115 -120 0 -105 0 -105 -35
-12 c-20 -7 -56 -27 -81 -46 -24 -19 -49 -34 -55 -34 -6 0 -49 21 -94 47 l-83
47 -43 155 c-52 185 -74 216 -118 172 -19 -19 -19 -21 5 -108 30 -108 38 -143
31 -143 -2 0 -30 15 -60 34 -113 67 -152 70 -152 11 0 -25 10 -34 84 -78 58
-34 80 -52 70 -57 -8 -4 -55 -17 -106 -30 -93 -22 -128 -44 -121 -76 8 -40 31
-40 190 -1 84 21 162 37 173 36 11 0 56 -22 100 -48 71 -41 79 -49 75 -71 -7
-38 -6 -133 3 -156 6 -16 2 -23 -20 -35 -16 -7 -56 -31 -91 -52 l-63 -38 -161
41 c-88 22 -169 38 -179 35 -23 -8 -35 -50 -20 -69 7 -8 61 -26 121 -41 61
-15 110 -30 110 -34 0 -3 -39 -28 -86 -56 -73 -43 -84 -53 -82 -74 2 -13 12
-30 23 -37 18 -12 30 -8 108 35 53 30 87 44 87 36 0 -7 -11 -52 -25 -99 -14
-47 -25 -97 -25 -110 0 -31 24 -50 55 -42 20 5 28 17 41 64 9 31 30 106 47
166 l32 109 85 48 c47 27 88 49 91 49 3 0 26 -15 50 -34 24 -18 61 -39 82 -46
l37 -12 0 -105 0 -105 -112 -120 c-113 -120 -130 -147 -108 -174 26 -30 54
-15 137 74 l83 87 0 -97 c0 -84 3 -101 20 -118 23 -23 30 -24 54 -7 21 16 24
31 25 136 l1 84 84 -86 c46 -48 89 -87 95 -87 26 0 51 22 51 43 -1 14 -42 65
-115 142 l-115 120 0 106 0 105 54 23 c29 12 64 33 76 46 13 14 29 25 36 25 7
0 51 -23 97 -51 l85 -50 27 -97 c62 -222 65 -232 91 -238 31 -8 54 11 54 45 0
14 -11 62 -25 106 -37 119 -36 120 38 78 114 -66 109 -64 132 -49 11 7 21 24
23 38 3 22 -8 31 -82 74 -47 27 -86 52 -86 55 0 4 49 19 110 34 60 15 114 33
121 41 15 19 3 61 -20 69 -10 3 -91 -13 -179 -35 l-159 -41 -91 53 c-79 46
-91 56 -84 73 8 23 9 117 2 154 -4 22 4 30 78 73 46 26 91 48 100 48 10 0 86
-16 170 -37 161 -40 184 -39 190 4 5 33 -21 49 -120 73 -51 13 -99 26 -107 30
-10 5 12 23 70 57 86 51 105 77 79 109 -19 22 -40 17 -124 -31 -44 -25 -81
-43 -83 -41 -3 2 9 55 25 116 30 110 30 112 11 131 -44 44 -66 12 -117 -171
l-44 -155 -91 -52 -92 -51 -33 30 c-32 27 -71 48 -114 62 -16 5 -18 19 -18
112 l0 106 115 121 c122 126 131 146 87 175 -21 14 -26 11 -112 -74 l-90 -88
0 87 c0 47 -5 98 -12 112 -14 32 -51 33 -72 3z m107 -652 c44 -18 94 -77 107
-127 32 -117 -56 -229 -179 -229 -155 0 -239 157 -153 289 46 71 145 101 225
67z"/>
<path d="M4307 2602 c-16 -17 -17 -89 -17 -830 0 -799 0 -812 20 -832 11 -11
24 -20 29 -20 22 0 40 33 46 82 3 29 5 398 3 819 -3 810 -3 799 -48 799 -9 0
-24 -8 -33 -18z"/>
<path d="M5020 2605 c-10 -12 -12 -67 -7 -248 17 -629 119 -979 393 -1343 64
-85 84 -100 114 -84 35 19 24 55 -43 143 -235 308 -334 614 -367 1132 -5 88
-10 212 -10 276 0 76 -4 119 -12 127 -17 17 -53 15 -68 -3z"/>
</g>
</svg>
