<?xml version="1.0" standalone="no"?>
<!DOCTYPE svg PUBLIC "-//W3C//DTD SVG 20010904//EN"
 "http://www.w3.org/TR/2001/REC-SVG-20010904/DTD/svg10.dtd">
<svg version="1.0" xmlns="http://www.w3.org/2000/svg"
 width="626.000000pt" height="626.000000pt" viewBox="0 0 626.000000 626.000000"
 preserveAspectRatio="xMidYMid meet">

<g transform="translate(0.000000,626.000000) scale(0.100000,-0.100000)"
fill="#000000" stroke="none">
<path d="M3113 5290 c-53 -32 -54 -99 -2 -115 20 -7 21 -12 15 -63 -17 -148
-93 -225 -268 -271 -106 -29 -196 -39 -438 -51 -411 -21 -598 -74 -743 -210
-87 -81 -122 -156 -114 -246 6 -78 36 -133 111 -201 46 -43 149 -103 175 -103
13 0 26 -724 26 -1470 1 -431 5 -769 13 -890 7 -107 17 -267 22 -355 19 -305
20 -315 44 -320 228 -52 431 -60 1060 -41 805 24 1089 35 1126 42 l33 7 -7
111 c-4 61 -11 172 -16 246 -4 74 -4 139 0 143 4 5 78 11 164 14 137 5 158 8
173 25 16 18 17 53 17 421 -1 256 -8 508 -19 692 -13 225 -37 1356 -29 1373 1
2 37 7 80 11 136 14 185 51 156 116 -12 25 -89 55 -142 55 -15 0 -47 3 -72 6
-42 6 -45 8 -61 54 -31 88 -125 151 -253 172 -77 12 -743 5 -1124 -12 -282
-12 -594 -16 -815 -11 -145 4 -176 2 -210 -13 -70 -30 -115 -88 -130 -169 -4
-20 -9 -37 -12 -37 -2 0 -20 9 -41 19 -100 51 -114 144 -35 232 44 49 92 75
175 94 88 20 373 51 628 70 330 23 401 38 503 106 88 58 130 154 148 336 9 88
16 124 31 144 19 25 19 28 4 57 -9 17 -25 36 -35 42 -32 17 -103 12 -138 -10z
m97 -95 c0 -211 -38 -345 -118 -415 -83 -73 -160 -91 -487 -115 -409 -29 -649
-62 -736 -101 -146 -66 -214 -214 -145 -319 20 -31 73 -70 111 -82 25 -8 30
-15 33 -46 2 -22 -1 -37 -8 -37 -29 0 -120 58 -171 109 -116 116 -105 242 32
365 134 121 348 174 774 191 285 11 480 58 569 137 28 23 58 65 78 105 30 61
32 73 33 169 0 92 2 104 18 104 14 0 17 -10 17 -65z m992 -809 c15 -7 14 -12
-8 -61 -55 -119 -68 -246 -91 -879 -11 -307 -18 -696 -18 -1117 l0 -647 -295
-6 c-649 -14 -1043 -27 -1425 -46 -220 -11 -405 -20 -411 -20 -21 0 -29 266
-29 955 0 374 -4 853 -9 1065 -10 435 -2 574 37 649 46 91 97 104 348 91 165
-9 311 -6 979 20 254 9 899 7 922 -4z m149 -97 c10 -13 20 -33 23 -45 6 -20 2
-21 -75 -28 -45 -4 -84 -5 -86 -2 -7 7 25 98 43 124 l16 23 31 -24 c17 -13 39
-35 48 -48z m253 -141 c96 -32 34 -53 -199 -68 -240 -14 -217 -18 -213 32 3
38 6 44 33 50 50 12 336 1 379 -14z m-200 -160 c3 -24 8 -275 10 -558 3 -283
12 -627 20 -765 9 -137 15 -305 16 -371 l0 -122 -52 -6 c-29 -3 -87 -8 -128
-11 -41 -3 -90 -8 -109 -11 l-34 -5 6 453 c6 452 31 1276 42 1375 l6 52 57 4
c31 2 80 4 109 5 l52 2 5 -42z m54 -2000 c1 -71 1 -128 0 -129 -18 -5 -315
-25 -320 -22 -7 4 -12 252 -5 254 14 4 269 26 292 25 l30 -1 3 -127z m-7 -298
c-2 -63 -4 -116 -5 -116 0 -1 -69 -4 -152 -8 l-152 -7 -4 108 c-3 59 -3 110
-1 112 4 5 278 29 303 27 13 -1 14 -20 11 -116z m-357 -196 c4 -75 5 -138 4
-139 -13 -12 -527 -25 -986 -26 -306 0 -690 -4 -852 -8 -162 -5 -296 -7 -298
-6 -2 1 -6 56 -9 122 l-6 120 84 7 c308 23 1349 58 1910 64 l146 2 7 -136z
m10 -216 c3 -13 8 -71 11 -129 l6 -107 -113 -6 c-62 -4 -273 -11 -468 -16
-195 -5 -514 -15 -708 -22 -278 -9 -389 -9 -520 1 -152 11 -318 33 -328 44 -6
6 -24 211 -19 216 10 9 587 20 1155 22 333 1 659 5 725 9 241 13 254 13 259
-12z"/>
<path d="M4290 2035 l-34 -35 -33 32 c-30 29 -35 31 -49 16 -14 -14 -13 -19
15 -50 l30 -35 -35 -42 c-58 -68 -26 -100 36 -36 l34 35 27 -26 c45 -43 70 -3
27 43 l-22 23 37 38 c20 21 37 46 37 55 0 28 -34 19 -70 -18z"/>
<path d="M2813 1566 c-4 -7 -20 -27 -35 -45 l-27 -32 -36 40 c-22 24 -42 38
-51 34 -22 -8 -17 -32 17 -75 l32 -39 -38 -39 c-24 -25 -36 -44 -32 -54 10
-25 28 -19 68 20 l37 37 32 -37 c57 -65 94 -34 39 33 l-32 40 42 55 c24 30 40
60 36 66 -9 14 -43 12 -52 -4z"/>
<path d="M3265 1544 l-36 -39 -25 33 c-25 32 -57 42 -69 22 -4 -6 8 -28 25
-50 l32 -40 -21 -28 c-11 -16 -27 -35 -36 -42 -8 -7 -15 -21 -15 -31 0 -32 35
-22 75 23 l38 42 40 -47 c21 -26 47 -47 57 -47 35 0 29 29 -16 79 l-45 50 32
41 c30 38 32 42 16 57 -15 15 -19 14 -52 -23z"/>
<path d="M3571 1566 c-10 -12 -5 -22 23 -54 20 -22 36 -43 36 -47 0 -4 -16
-25 -36 -47 -34 -38 -41 -67 -18 -75 7 -2 30 15 52 39 l41 43 40 -39 c25 -25
45 -37 55 -33 20 8 20 31 1 47 -9 7 -25 26 -36 42 l-20 28 30 37 c35 42 38 58
15 67 -10 4 -27 -7 -49 -31 l-34 -38 -39 38 c-43 42 -45 43 -61 23z"/>
<path d="M2248 1518 l-25 -32 -28 22 c-15 12 -36 22 -46 22 -30 0 -23 -36 11
-60 l31 -22 -36 -43 c-21 -27 -33 -49 -29 -59 10 -26 31 -19 66 23 l32 39 34
-29 c37 -33 45 -35 62 -14 10 13 6 21 -25 49 l-37 34 27 36 c27 36 28 66 2 66
-8 0 -26 -14 -39 -32z"/>
</g>
</svg>
